<?xml version="1.0" encoding="utf-8"?>
<!-- Generator: Adobe Illustrator 16.0.0, SVG Export Plug-In . SVG Version: 6.00 Build 0)  -->
<!DOCTYPE svg PUBLIC "-//W3C//DTD SVG 1.1//EN" "http://www.w3.org/Graphics/SVG/1.1/DTD/svg11.dtd">
<svg version="1.1" id="Camada_1" xmlns="http://www.w3.org/2000/svg" xmlns:xlink="http://www.w3.org/1999/xlink" x="0px" y="0px"
	 width="795.59px" height="158.656px" viewBox="0 316.672 795.59 158.656" enable-background="new 0 316.672 795.59 158.656"
	 xml:space="preserve">
<title>Revelo-Vermelho</title>
<rect x="191.28" y="362.029" fill="#273A50" width="604.31" height="113.299"/>
<path fill="#FFFFFF" d="M253.908,418.457c6.938,0,11.33-3.691,11.33-9.227l0,0c0-5.904-4.244-9.152-11.404-9.152h-13.95v18.453
	L253.908,418.457z M230.03,391.11h24.616c5.824-0.322,11.54,1.667,15.906,5.537c3.04,3.197,4.686,7.472,4.576,11.883l0,0
	c0.336,8.066-5.202,15.196-13.102,16.866l14.762,20.851h-11.441l-13.507-19.228h-11.957v19.228h-9.854V391.11z"/>
<polygon fill="#FFFFFF" points="292.917,391.11 334.214,391.11 334.214,399.783 302.623,399.783 302.623,414.102 330.266,414.102 
	330.266,422.774 302.623,422.774 302.623,437.574 334.214,437.574 334.214,446.246 292.917,446.246 "/>
<polygon fill="#FFFFFF" points="348.349,391.11 359.088,391.11 375.695,433.515 392.229,391.11 402.71,391.11 379.939,446.283 
	371.119,446.283 "/>
<polygon fill="#FFFFFF" points="417.214,391.11 458.511,391.11 458.511,399.783 426.92,399.783 426.92,414.102 454.563,414.102 
	454.563,422.774 426.92,422.774 426.92,437.574 458.511,437.574 458.511,446.246 417.214,446.246 "/>
<rect x="474.639" y="391.11" fill="#FFFFFF" width="9.669" height="46.316"/>
<rect x="484.345" y="437.426" fill="#FFFFFF" width="29.008" height="8.82"/>
<polygon fill="#EF474A" points="0,316.672 0,339.332 0,361.992 191.28,361.992 191.28,339.332 191.28,316.672 "/>
<g>
	<path fill="#FFFFFF" d="M529.073,446.303v-55.532h10.982v55.532H529.073z"/>
	<path fill="#FFFFFF" d="M591.333,416.586c4.304,5.673,7.8,10.708,10.489,15.107h0.269c-0.358-7.222-0.537-12.479-0.537-15.771
		v-25.151h10.981v55.532h-11.52l-19.544-25.566c-3.437-4.427-6.992-9.56-10.668-15.398h-0.269
		c0.358,6.807,0.538,12.078,0.538,15.813v25.151h-10.982v-55.532h11.52L591.333,416.586z"/>
	<path fill="#FFFFFF" d="M643.553,413.639h27.791v-22.868h10.981v55.532h-10.981v-24.155h-27.791v24.155H632.57v-55.532h10.982
		V413.639z"/>
	<path fill="#FFFFFF" d="M756.839,418.597c0,4.056-0.623,7.774-1.868,11.155c-1.245,3.38-3.064,6.29-5.454,8.73
		c-2.391,2.439-5.326,4.333-8.805,5.686c-3.479,1.353-7.438,2.027-11.877,2.027c-4.438,0-8.396-0.675-11.875-2.027
		c-3.479-1.353-6.414-3.246-8.804-5.686c-2.391-2.44-4.21-5.351-5.455-8.73c-1.245-3.381-1.868-7.1-1.868-11.155
		s0.623-7.772,1.868-11.154c1.245-3.38,3.064-6.289,5.455-8.729c2.39-2.439,5.325-4.334,8.804-5.686
		c3.479-1.352,7.438-2.029,11.875-2.029c4.439,0,8.397,0.677,11.877,2.029c3.479,1.352,6.414,3.247,8.805,5.686
		c2.39,2.44,4.209,5.35,5.454,8.729C756.216,410.824,756.839,414.541,756.839,418.597z M745.973,418.597
		c0-3.232-0.43-6.065-1.289-8.489c-0.859-2.427-2.047-4.449-3.565-6.064c-1.517-1.617-3.322-2.824-5.411-3.618
		c-2.09-0.797-4.38-1.193-6.872-1.193c-2.489,0-4.782,0.396-6.871,1.193c-2.09,0.794-3.895,2.001-5.412,3.618
		c-1.517,1.615-2.704,3.638-3.563,6.064c-0.859,2.424-1.289,5.257-1.289,8.489c0,3.235,0.43,6.066,1.289,8.49
		c0.859,2.427,2.047,4.442,3.563,6.045c1.518,1.605,3.322,2.811,5.412,3.618c2.089,0.81,4.382,1.213,6.871,1.213
		c2.492,0,4.782-0.403,6.872-1.213c2.089-0.808,3.895-2.013,5.411-3.618c1.519-1.603,2.706-3.618,3.565-6.045
		C745.543,424.663,745.973,421.832,745.973,418.597z"/>
</g>
</svg>
